<svg width="179" height="199" viewBox="0 0 179 199" fill="none" xmlns="http://www.w3.org/2000/svg">
<mask id="mask0_167_20" style="mask-type:luminance" maskUnits="userSpaceOnUse" x="0" y="0" width="179" height="199">
<path d="M0 0H179V198.666H0V0Z" fill="white"/>
</mask>
<g mask="url(#mask0_167_20)">
<path d="M171.984 109.588C169.557 105.577 166.427 101.859 162.625 98.5149C161.328 97.0569 159.948 95.6759 158.443 94.3379C157.151 92.8739 155.771 91.4989 154.266 90.1609C152.969 88.6969 151.594 87.3169 150.088 85.9839C149.797 85.6869 149.547 85.3539 149.25 85.0619L175.281 83.5149L174.198 74.6609C172.193 58.3639 166.172 45.7019 156.271 36.9259C154.641 35.4679 145.156 22.5979 131.203 12.6919C119.417 4.37989 102.495 0.118896 80.979 0.118896C63.469 0.118896 49.849 2.3329 39.406 6.9259C28.625 11.6499 20.349 18.2909 14.833 26.7749C9.31801 35.2129 6.521 44.3639 6.521 53.9729C6.521 68.3899 11.911 80.4679 22.484 89.8689C23.776 91.3269 25.156 92.7079 26.661 94.0459C27.953 95.5099 29.333 96.8849 30.838 98.2229C32.135 99.6869 33.51 101.067 35.016 102.4C35.812 103.322 36.687 104.156 37.568 105.036L-0.0419922 107.374L0.671997 115.9C2.177 133.531 8.81801 148.364 20.391 159.937C21.021 160.567 34.557 174.104 41.286 180.827C53.193 192.739 73.125 198.546 102.12 198.546C118.292 198.546 131.995 196.124 142.943 191.317C154.307 186.343 163.292 178.864 169.682 169.088C176.078 159.312 179.338 148.489 179.338 136.916C179.38 126.932 176.87 117.739 171.984 109.588ZM83.693 130.27L83.609 129.729C84.198 129.895 84.865 130.02 85.448 130.187C84.948 130.229 84.323 130.27 83.693 130.27Z" fill="#FF453A"/>
</g>
<path d="M9.06787 115.187L54.7809 112.307C55.7809 119.744 57.7859 125.385 60.8379 129.271C65.7709 135.578 72.8699 138.713 82.0619 138.713C88.9169 138.713 94.2239 137.125 97.9429 133.906C101.661 130.692 103.5 126.974 103.5 122.708C103.5 118.698 101.745 115.062 98.1929 111.885C94.6409 108.713 86.4529 105.703 73.5829 102.864C52.5259 98.1401 37.4839 91.8331 28.4999 83.9791C19.4319 76.1191 14.9169 66.1351 14.9169 53.9741C14.9169 45.9941 17.2189 38.4321 21.8539 31.3281C26.4949 24.2291 33.4689 18.6301 42.7449 14.5731C52.0209 10.5201 64.7659 8.47412 80.9789 8.47412C100.865 8.47412 115.995 12.1511 126.437 19.5471C136.885 26.9421 143.068 38.6821 145.073 54.8121L99.7809 57.4421C98.5679 50.4271 96.0619 45.3691 92.2189 42.1511C88.3749 38.9741 83.0259 37.3901 76.2549 37.3901C70.6559 37.3901 66.4789 38.5571 63.6409 40.9371C60.7969 43.3231 59.3749 46.2031 59.3749 49.5881C59.3749 52.0521 60.5469 54.3121 62.8849 56.2761C65.1409 58.3231 70.5309 60.2441 79.0159 62.0001C100.031 66.5101 115.073 71.1091 124.141 75.7441C133.208 80.3851 139.849 86.1091 143.989 92.9581C148.125 99.8121 150.172 107.5 150.172 115.984C150.172 125.968 147.411 135.161 141.896 143.557C136.385 151.958 128.693 158.349 118.792 162.698C108.891 167.041 96.3959 169.213 81.3539 169.213C54.9059 169.213 36.6039 164.114 26.4109 153.922C16.2129 143.729 10.4059 130.901 9.06787 115.187Z" fill="white"/>
</svg>
